<?xml version="1.0" standalone="no"?>
<!DOCTYPE svg PUBLIC "-//W3C//DTD SVG 20010904//EN"
 "http://www.w3.org/TR/2001/REC-SVG-20010904/DTD/svg10.dtd">
<svg version="1.0" xmlns="http://www.w3.org/2000/svg"
 width="512.000000pt" height="512.000000pt" viewBox="0 0 512.000000 512.000000"
 preserveAspectRatio="xMidYMid meet">

<g transform="translate(0.000000,512.000000) scale(0.100000,-0.100000)"
fill="#000000" stroke="none">
<path d="M2325 5109 c-490 -47 -966 -238 -1358 -546 -107 -83 -362 -344 -444
-453 -267 -357 -436 -765 -500 -1205 -25 -172 -24 -546 1 -710 83 -542 315
-1014 691 -1403 442 -459 1003 -727 1635 -782 1146 -99 2218 587 2618 1675 48
130 105 358 127 505 23 148 31 467 16 615 -74 731 -440 1375 -1032 1817 -495
369 -1132 546 -1754 487z m235 -2129 l0 -270 23 0 c63 0 127 -76 127 -150 0
-74 -64 -150 -127 -150 l-23 0 0 -271 0 -272 -69 7 c-89 8 -190 39 -271 83
-96 53 -225 187 -273 284 -102 209 -102 433 0 639 52 105 188 241 293 293 86
43 203 76 273 76 l47 1 0 -270z"/>
</g>
</svg>
